<svg xmlns="http://www.w3.org/2000/svg" viewBox="0 0 48 48"><path fill="#ffa000" d="M36.443,2.363c0,0-5.023,0.504-8.394,7.75c-3.256,6.999-6.312,11.696-6.312,11.696l6.05-1.817	L36.443,2.363z"/><path fill="#ffa000" d="M21,32c-0.716,2.063-2.03,4.322-3.03,5.313L19,46l1.468,2h-3l-0.514-1.982L14,36l1-6L21,32z"/><path fill="#ffa000" d="M33,28c-0.309,4.043-0.691,8.011-1,12v6l1,2h-3.053l0.007-1.982L30,40l-2-10L33,28z"/><path fill="#ffa000" d="M7.349,31.412c-0.008-1.632,0.628-3.16,1.599-4.418c0.975-1.258,2.373-2.249,3.987-2.687l0.444,1.95	c-1.192,0.207-2.332,0.842-3.207,1.776c-0.871,0.926-1.506,2.151-1.612,3.402L7.349,31.412z"/><path fill="#ffd54f" d="M9.954,35.123c0,0,3-2.974,2-6.938c-1.085-4.3,2-4.956,6-5.947c3.068-0.76,7-1.982,9-5.947	s7-15.859,11-14.868c2,1.982,1.806,1.772,4.711,4.838c0.862,0.91-0.798,1.723-0.798,1.723L36.954,7.37c0,0-1.495,3.497-3.495,9.444	c-1,2.974-1.268,3.778-1.459,6.186c1,1.982,1,3,1,5c0,3.137-3.622,4.18-4.046,7.123c-1,6.938-1,10.894-1,10.894l1,1.982h-3L26,46v-5	l-1.046-7.859c-2.754,0.321-5.172,0.12-7-0.991c-0.716,2.063-1.933,3.792-4,4.956L13,46l1,2h-3l-0.046-1.982L9.954,35.123z"/><path fill="#757575" d="M7.864,31.133c-0.572,0-1.124,0.612-1.049,1.747c0.066,0.997,0.716,2.62,0.716,3.62	c0.797-1,1.438-2.739,1.438-3.739S8.436,31.085,7.864,31.133z"/><path fill="#ffd54f" d="M35,6.532c-0.553,0-1-0.417-1-0.933V0.933C34,0.417,34.447,0,35,0s1,0.417,1,0.933v4.666	C36,6.115,35.553,6.532,35,6.532z"/><path fill="#ffd54f" d="M38,6.532c-0.553,0-1-0.417-1-0.933V0.933C37,0.417,37.447,0,38,0s1,0.417,1,0.933v4.666	C39,6.115,38.553,6.532,38,6.532z"/><circle cx="37.5" cy="3.5" r=".5" fill="#795548"/><circle cx="42" cy="7" r="1" fill="#a1887f"/><path fill="#fbc02d" d="M20.819,23.957l1.915-2.298l-1.231-0.544c-1.208,0.507-2.435,0.846-3.549,1.122 c-0.033,0.008-0.065,0.016-0.098,0.024l-0.292,0.93L20.819,23.957z"/><polygon fill="#fbc02d" points="29.819,18.021 27.809,17.543 25.319,19.84 27.617,21.851 30.106,19.936"/><polygon fill="#fbc02d" points="22.638,25.777 24.745,28.17 27.617,27.5 28,24.915 25.223,21.564"/><polygon fill="#fbc02d" points="15.17,27.596 17.277,29.511 18.809,29.415 20.819,25.777 16.894,24.915"/><path fill="#fbc02d" d="M14.404,25.777l1.245-1.819l-0.03-1.11c-0.94,0.276-1.762,0.591-2.407,1.018l-0.053,0.763 L14.404,25.777z"/><path fill="#fbc02d" d="M22.447,28.553l-2.011,2.872l0.664,1.756c1.136,0.144,2.382,0.119,3.705-0.026l-0.061-2.495 L22.447,28.553z"/><path fill="#fbc02d" d="M29.34,14l-0.192,1.532l2.872,1.34l1.544-0.369c0.661-1.955,1.263-3.633,1.771-4.999l-3.027-0.568 L29.34,14z"/><path fill="#fbc02d" d="M13.83,31.617l1.723-1.628l-1.436-1.532l-2.071,0.2c0.137,0.774,0.133,1.506,0.03,2.18L13.83,31.617 z"/><path fill="#fbc02d" d="M30.832,8.526l0.615,1.07l2.011-1.149V6.053l-1.116-0.076C31.823,6.784,31.317,7.646,30.832,8.526z"/><path fill="#fbc02d" d="M32.192,21.295c-0.899,0.472-2.852,1.514-2.852,1.514l1.436,3.255l2.127-0.346 C32.792,24.888,32.549,24.089,32,23C32.053,22.334,32.114,21.795,32.192,21.295z"/><path fill="#fbc02d" d="M30.106,27.883l-3.255,2.202l1.053,2.298l1.586,1.25c0.986-1.682,2.928-2.791,3.398-4.748 L30.106,27.883z"/><path fill="#fbc02d" d="M13.064,34.681l0.891,2.425c1.522-0.857,2.58-2.022,3.32-3.399l-1.721-1.515L13.064,34.681z"/><g><polygon fill="#a1887f" points="10.953,46 10.954,46.018 11,48 14,48 13,46"/><path fill="#a1887f" d="M27.954,46H26l-0.046,2h3l-1-1.982C27.954,46.018,27.954,46.004,27.954,46z"/></g><g><polygon fill="#a1887f" points="16.949,46 16.954,46.018 17.468,48 20.468,48 19,46"/><polygon fill="#a1887f" points="29.954,46 29.954,46.018 29.947,48 33,48 32,46"/></g></svg>