<svg xmlns="http://www.w3.org/2000/svg" viewBox="0 0 48 48"><path fill="#ffcc80" d="M34.22,40H13.78c2.953,1.89,6.454,3,10.22,3S31.267,41.89,34.22,40z"/><path fill="#ffa726" d="M11.187,38c0.805,0.738,1.67,1.409,2.593,2h20.44c0.924-0.591,1.788-1.262,2.593-2H11.187z"/><path fill="#ffcc80" d="M8.527,35c0.779,1.094,1.672,2.096,2.66,3h25.627c0.988-0.904,1.881-1.906,2.66-3H8.527z"/><path fill="#ffccbc" d="M6.348,31c0.567,1.427,1.3,2.767,2.178,4h30.947c0.878-1.233,1.612-2.573,2.178-4H6.348z"/><path fill="#ff8a65" d="M41.654,31c0.253-0.651,0.473-1.318,0.659-2H23v2H41.654z"/><path fill="#d84315" d="M42.312,29c0.176-0.654,0.32-1.32,0.429-2H5.259c0.108,0.68,0.252,1.346,0.429,2H42.312z"/><path fill="#f4511e" d="M18,27c-4.875,0-6.75,2-7.875,2c-0.834,0-3.245,0-4.438,0c0.186,0.682,0.403,1.35,0.661,2H14l3.875,4 C22,35,25,33.5,25,31C25,30.5,24.5,27,18,27z"/><path fill="#ff8a65" d="M18 29A5 3 0 1 0 18 35A5 3 0 1 0 18 29Z"/><path fill="#f4511e" d="M18 31A2 1 0 1 0 18 33A2 1 0 1 0 18 31Z"/><path fill="#ffa726" d="M5,24c0,1.023,0.104,2.02,0.259,3h37.481C42.896,26.02,43,25.023,43,24c0-0.338-0.033-0.667-0.05-1 H5.05C5.033,23.333,5,23.662,5,24z"/><path fill="#e65100" d="M42.972,23c-0.055-1.023-0.193-2.025-0.402-3H5.43c-0.209,0.975-0.347,1.977-0.402,3H42.972z"/><path fill="#ffccbc" d="M6.374,17c-0.386,0.967-0.722,1.961-0.944,3h37.14c-0.223-1.039-0.558-2.033-0.944-3H6.374z"/><path fill="#ffab91" d="M41.652,17c-0.272-0.685-0.571-1.357-0.918-2H7.266c-0.347,0.643-0.646,1.315-0.918,2H41.652z"/><path fill="#ffccbc" d="M38.725,12H9.275c-0.759,0.93-1.425,1.936-1.998,3h33.447C40.151,13.936,39.484,12.93,38.725,12z"/><path fill="#fb8c00" d="M9.275,12h29.451c-0.584-0.716-1.231-1.376-1.912-2H11.187C10.505,10.624,9.859,11.284,9.275,12z"/><path fill="#ffcc80" d="M36.83,10C33.449,6.899,28.949,5,24,5s-9.449,1.899-12.83,5H36.83z"/></svg>