<svg xmlns="http://www.w3.org/2000/svg" viewBox="0 0 48 48"><path fill="#ff7043" d="M16,34h24.148c0.001-0.002,0.002-0.003,0.003-0.005C41.956,31.094,43,27.67,43,24 c0-6.106-2.892-11.524-7.367-15H12.367C7.892,12.476,5,17.894,5,24c0,0.331,0.015,0.659,0.032,0.985L16,34z"/><path fill="#a1887f" d="M13.78,40h20.44c2.396-1.534,4.425-3.584,5.928-6c-0.647-2.524-3.092-4-5.148-4c-3,0-5,2-9,2 c-9,0-8.938-8-17-8c-1.777,0-2.974,0.49-3.968,0.985C5.356,31.3,8.765,36.79,13.78,40z"/><path fill="#bcaaa4" d="M24 5c-4.388 0-8.417 1.502-11.633 4h23.266C32.417 6.502 28.388 5 24 5zM34.22 40H13.78c2.953 1.89 6.454 3 10.22 3S31.267 41.89 34.22 40z"/></svg>